HIERARCHY
ROOT Hips
{
	OFFSET 0.000000 0.000000 0.000000
	CHANNELS 6 Xposition Yposition Zposition Zrotation Yrotation Xrotation 
	JOINT LHipJoint
	{
		OFFSET 0.000000 0.000000 0.000000
		CHANNELS 3 Zrotation Yrotation Xrotation
		JOINT LeftUpLeg
		{
			OFFSET 1.363060 -1.794630 0.839290
			CHANNELS 3 Zrotation Yrotation Xrotation
			JOINT LeftLeg
			{
				OFFSET 2.448110 -6.726130 0.000000
				CHANNELS 3 Zrotation Yrotation Xrotation
				JOINT LeftFoot
				{
					OFFSET 2.562200 -7.039590 0.000000
					CHANNELS 3 Zrotation Yrotation Xrotation
					JOINT LeftToeBase
					{
						OFFSET 0.157640 -0.433110 2.322550
						CHANNELS 3 Zrotation Yrotation Xrotation
						End Site
						{
							OFFSET 0.000000 0.000000 0.000000
						}
					}
				}
			}
		}
	}
	JOINT RHipJoint
	{
		OFFSET 0.000000 0.000000 0.000000
		CHANNELS 3 Zrotation Yrotation Xrotation
		JOINT RightUpLeg
		{
			OFFSET -1.305520 -1.794630 0.839290
			CHANNELS 3 Zrotation Yrotation Xrotation
			JOINT RightLeg
			{
				OFFSET -2.542530 -6.985550 0.000000
				CHANNELS 3 Zrotation Yrotation Xrotation
				JOINT RightFoot
				{
					OFFSET -2.568260 -7.056230 0.000000
					CHANNELS 3 Zrotation Yrotation Xrotation
					JOINT RightToeBase
					{
						OFFSET -0.164730 -0.452590 2.363150
						CHANNELS 3 Zrotation Yrotation Xrotation
						End Site
						{
							OFFSET 0.000000 0.000000 0.000000
						}
					}
				}
			}
		}
	}
	JOINT LowerBack
	{
		OFFSET 0.000000 0.000000 0.000000
		CHANNELS 3 Zrotation Yrotation Xrotation
		JOINT Spine
		{
			OFFSET 0.028270 2.035590 -0.193380
			CHANNELS 3 Zrotation Yrotation Xrotation
			JOINT Spine1
			{
				OFFSET 0.056720 2.048850 -0.042750
				CHANNELS 3 Zrotation Yrotation Xrotation
				JOINT Neck
				{
					OFFSET 0.000000 0.000000 0.000000
					CHANNELS 3 Zrotation Yrotation Xrotation
					JOINT Neck1
					{
						OFFSET -0.054170 1.746240 0.172020
						CHANNELS 3 Zrotation Yrotation Xrotation
						JOINT Head
						{
							OFFSET 0.104070 1.761360 -0.123970
							CHANNELS 3 Zrotation Yrotation Xrotation
							End Site
							{
								OFFSET 0.000000 0.000000 0.000000
							}
						}
					}
				}
				JOINT LeftShoulder
				{
					OFFSET 0.000000 0.000000 0.000000
					CHANNELS 3 Zrotation Yrotation Xrotation
					JOINT LeftArm
					{
						OFFSET 3.362410 1.200890 -0.311210
						CHANNELS 3 Zrotation Yrotation Xrotation
						JOINT LeftForeArm
						{
							OFFSET 4.983000 -0.000000 -0.000000
							CHANNELS 3 Zrotation Yrotation Xrotation
							JOINT LeftHand
							{
								OFFSET 3.483560 -0.000000 -0.000000
								CHANNELS 3 Zrotation Yrotation Xrotation
								JOINT LeftFingerBase
								{
									OFFSET 0.000000 0.000000 0.000000
									CHANNELS 3 Zrotation Yrotation Xrotation
									JOINT LeftHandIndex1
									{
										OFFSET 0.715260 -0.000000 -0.000000
										CHANNELS 3 Zrotation Yrotation Xrotation
										End Site
										{
											OFFSET 0.000000 0.000000 0.000000
										}
									}
								}
								JOINT LThumb
								{
									OFFSET 0.000000 0.000000 0.000000
									CHANNELS 3 Zrotation Yrotation Xrotation
									End Site
									{
										OFFSET 0.000000 0.000000 0.000000
									}
								}
							}
						}
					}
				}
				JOINT RightShoulder
				{
					OFFSET 0.000000 0.000000 0.000000
					CHANNELS 3 Zrotation Yrotation Xrotation
					JOINT RightArm
					{
						OFFSET -3.136600 1.374050 -0.404650
						CHANNELS 3 Zrotation Yrotation Xrotation
						JOINT RightForeArm
						{
							OFFSET -5.241900 -0.000000 -0.000000
							CHANNELS 3 Zrotation Yrotation Xrotation
							JOINT RightHand
							{
								OFFSET -3.444170 -0.000000 -0.000000
								CHANNELS 3 Zrotation Yrotation Xrotation
								JOINT RightFingerBase
								{
									OFFSET 0.000000 0.000000 0.000000
									CHANNELS 3 Zrotation Yrotation Xrotation
									JOINT RightHandIndex1
									{
										OFFSET -0.622530 -0.000000 -0.000000
										CHANNELS 3 Zrotation Yrotation Xrotation
										End Site
										{
											OFFSET 0.000000 0.000000 0.000000
										}
									}
								}
								JOINT RThumb
								{
									OFFSET 0.000000 0.000000 0.000000
									CHANNELS 3 Zrotation Yrotation Xrotation
									End Site
									{
										OFFSET 0.000000 0.000000 0.000000
									}
								}
							}
						}
					}
				}
			}
		}
	}
}
MOTION
Frames: 9
Frame Time: 0.008333
10.391903 17.644108 2.420887 -172.849972 10.492347 179.424055 8.184338 0.932884 -1.159897 -17.807551 -4.237090 -8.648863 3.872602 13.910222 42.145914 -0.369414 5.029480 -10.960500 0.329200 -3.687800 -10.199900 -9.947218 -0.563419 -2.848254 38.015881 4.154065 -2.075118 -2.415952 -12.152168 32.570757 2.044775 -14.009344 -12.215991 -3.272000 11.122900 -32.695400 7.582546 0.522678 16.705133 2.737621 2.963529 2.393605 -7.615326 1.824223 -0.797062 8.493022 9.739103 2.835001 -0.227330 12.131129 -4.772740 -5.960300 4.984200 -2.768500 15.028772 2.814259 -0.087049 -93.885293 13.368076 35.025565 71.245560 -58.250260 -58.816021 0.901063 -5.168167 -23.218382 33.048179 11.043539 11.238400 -7.125000 0.000000 0.000000 6.678900 49.979300 0.823100 -16.131942 -5.525625 0.711295 78.940063 -23.588353 68.977864 -66.460812 57.409276 -49.215882 -0.144390 2.744216 -25.206315 -27.432729 -1.006696 2.068800 7.125000 0.000000 0.000000 -1.567800 -34.311100 -0.411400 
10.399404 17.212594 2.505894 -173.678892 10.427273 179.484634 8.281469 0.790020 -1.234285 -18.914559 -4.314586 -10.107772 4.586179 14.910494 45.203192 0.335006 4.115502 -16.631189 0.412500 -4.122700 -11.422100 -9.954382 -0.496179 -2.686549 37.217505 4.570380 -5.090871 -3.392588 -13.806974 37.683292 1.397181 -12.265951 -17.553786 -3.520600 11.493500 -33.963000 6.538046 0.603321 17.127427 2.720296 2.937906 2.493085 -7.304995 1.806497 -1.090775 8.798214 9.969832 3.605868 -0.602145 12.522619 -5.638523 -6.233900 5.089300 -3.179800 14.892435 2.614457 -0.174469 -95.138462 12.435414 35.367678 68.260280 -56.837371 -55.877481 0.917490 -5.312417 -23.333203 33.614678 12.041014 12.244700 -7.125000 0.000000 0.000000 7.286500 51.451800 1.163100 -16.063152 -5.479956 0.789370 80.092543 -22.596447 68.833591 -63.434760 56.325894 -46.307680 -0.143526 2.808857 -26.013857 -28.531343 -1.392160 2.427000 7.125000 0.000000 0.000000 -2.532600 -34.874200 -0.630200 
10.404972 16.866883 2.595447 -174.128416 10.484154 179.651254 8.411066 0.639160 -1.331087 -19.716205 -4.827375 -11.702777 5.290165 15.851132 48.098994 0.563762 4.829970 -20.410531 0.471900 -4.406000 -12.221600 -10.036653 -0.402819 -2.479913 37.054478 5.815762 -8.153439 -4.417623 -15.362209 42.512349 1.143137 -12.422319 -21.240115 -3.402300 11.319400 -33.364700 5.773505 0.657630 17.632426 2.744002 2.948101 2.635721 -7.001891 1.819998 -1.325928 9.092194 10.260947 4.293463 -1.033392 13.021873 -6.575044 -6.513400 5.244800 -3.581300 14.738657 2.412017 -0.266602 -96.409384 11.602840 35.571584 65.248603 -55.387415 -52.766634 0.939452 -5.453625 -24.143387 34.378750 13.079619 13.410800 -7.125000 0.000000 0.000000 8.188600 53.010500 1.622400 -15.953847 -5.439904 0.866250 81.398246 -21.256861 68.593453 -59.922947 55.025612 -42.920678 -0.148057 2.865122 -27.007561 -29.424804 -1.944766 2.877600 7.125000 0.000000 0.000000 -3.337700 -35.613000 -0.771000 
10.410995 16.612771 2.682614 -174.189548 10.608438 179.839724 8.549120 0.503415 -1.434139 -20.120447 -5.478934 -13.259900 5.930314 16.653472 50.639228 0.441740 6.328525 -22.563823 0.517400 -4.610200 -12.800100 -10.161933 -0.302172 -2.271193 37.475367 7.426602 -10.771793 -5.334419 -16.645825 46.523374 1.184210 -13.654219 -23.750359 -3.043600 10.765300 -31.492500 5.341433 0.676513 18.181521 2.802742 2.992728 2.821513 -6.750720 1.866026 -1.444908 9.349440 10.575826 4.848433 -1.444183 13.560691 -7.420394 -6.759200 5.430600 -3.913500 14.585456 2.251276 -0.348169 -97.592148 11.012068 35.694474 62.571815 -54.087876 -49.919532 0.985531 -5.591869 -25.855680 35.329501 14.038252 14.676600 -7.125000 0.000000 0.000000 9.415000 54.518000 2.216500 -15.824490 -5.422027 0.933714 82.685671 -19.915128 68.199238 -56.690626 53.773321 -39.810386 -0.161749 2.917542 -28.179975 -30.143989 -2.592013 3.385200 7.125000 0.000000 0.000000 -4.006500 -36.453000 -0.843700 
10.414746 16.456621 2.758984 -173.830658 10.689829 -179.903540 8.660968 0.403071 -1.524837 -20.015370 -6.073000 -14.562342 6.431813 17.230522 52.526358 0.221773 7.693685 -23.595109 0.485300 -4.466800 -12.393900 -10.292068 -0.214926 -2.096847 38.406088 8.934877 -12.634695 -5.983926 -17.541093 49.266137 1.344348 -15.112067 -25.451370 -2.583600 9.988300 -28.939000 5.434095 0.635146 18.654706 2.879648 3.058979 3.011652 -6.694630 1.936930 -1.442840 9.529268 10.834973 5.263310 -1.726149 14.009346 -8.052508 -6.917200 5.594000 -4.164800 14.459189 2.172944 -0.411379 -98.562014 10.796774 35.890951 60.523321 -53.091433 -47.734996 1.064558 -5.721740 -28.211056 36.323415 14.779784 15.874900 -7.125000 0.000000 0.000000 10.796800 55.779500 2.879800 -15.715410 -5.440349 0.987352 83.853294 -18.957251 67.638206 -54.367549 52.828349 -37.587195 -0.182635 2.968450 -29.389402 -30.767843 -3.173548 3.862100 7.125000 0.000000 0.000000 -4.599000 -37.219100 -0.882800 
10.416110 16.404117 2.811488 -173.752092 10.594111 -179.725965 8.735521 0.325094 -1.577402 -20.169707 -6.633143 -15.269447 6.646498 17.530181 53.374309 0.056795 8.506310 -23.948400 0.369000 -3.901800 -10.800700 -10.371706 -0.148664 -1.998054 38.948599 10.021189 -13.549755 -6.277966 -17.969643 50.514225 1.495418 -16.290890 -26.582332 -2.151800 9.175400 -26.345500 5.434487 0.587342 18.979458 2.901382 3.071677 3.170943 -6.737033 1.986716 -1.357940 9.617507 10.992586 5.555403 -1.849543 14.277996 -8.361287 -6.988000 5.697500 -4.307300 14.375577 2.203686 -0.456776 -99.283506 11.063767 36.274886 59.173362 -52.444112 -46.352265 1.143420 -5.824128 -30.453898 37.120648 15.092682 16.680400 -7.125000 0.000000 0.000000 11.980200 56.459300 3.400100 -15.674880 -5.502545 1.024936 84.748296 -18.742736 66.994583 -53.395390 52.411220 -36.667643 -0.205291 3.012828 -30.465616 -31.349089 -3.466307 4.167500 7.125000 0.000000 0.000000 -5.149600 -37.649900 -0.934700 
10.415314 16.449802 2.837513 -173.881122 10.260796 -179.558781 8.756324 0.277951 -1.586735 -20.447969 -7.108558 -15.378651 6.530364 17.529094 53.074060 -0.010258 8.716849 -23.875399 0.230600 -3.091000 -8.532200 -10.388383 -0.116162 -1.986157 39.093972 10.429871 -13.591281 -6.189527 -17.945966 50.270682 1.583198 -16.990446 -27.242042 -1.830300 8.503200 -24.253200 5.471860 0.525305 19.103269 2.872103 3.033026 3.268807 -6.914221 2.010475 -1.202424 9.544602 11.022134 5.619629 -1.701208 14.303695 -8.261978 -6.904400 5.719000 -4.307600 14.346388 2.347504 -0.493721 -99.699203 11.770567 36.965516 58.458071 -52.122067 -45.719195 1.185087 -5.883922 -31.823651 37.556937 14.994912 16.948600 -7.125000 0.000000 0.000000 12.657100 56.515100 3.613600 -15.716463 -5.605464 1.042825 85.281709 -19.421868 66.318315 -53.927663 52.619700 -37.182250 -0.220917 3.042961 -31.207629 -31.934273 -3.339170 4.207000 7.125000 0.000000 0.000000 -5.683500 -37.583600 -1.041600 
10.410200 16.575495 2.843536 -174.078680 9.665665 -179.266228 8.725938 0.260012 -1.562106 -20.678731 -7.533347 -15.050192 6.105960 17.246475 51.702522 -0.128975 8.743575 -23.089612 0.184400 -2.765700 -7.627200 -10.356346 -0.116278 -2.035519 38.922164 10.259765 -13.117225 -5.794924 -17.562922 48.818653 1.683788 -17.374642 -27.158419 -1.705600 8.223900 -23.396400 5.674856 0.440860 19.001426 2.812234 2.950569 3.284660 -7.233667 2.004585 -1.031018 9.403191 10.926455 5.509273 -1.391033 14.118028 -7.886490 -6.735100 5.661700 -4.211900 14.378643 2.576702 -0.525334 -99.804373 12.840814 37.938459 58.235420 -52.057379 -45.657031 1.150542 -5.900055 -31.880664 37.674132 14.571974 16.736600 -7.125000 0.000000 0.000000 12.832400 56.051900 3.520000 -15.831877 -5.740367 1.048842 85.413482 -20.962463 65.711354 -55.923558 53.422312 -39.088951 -0.230324 3.060302 -31.639591 -32.619632 -2.870648 4.031100 7.125000 0.000000 0.000000 -6.276400 -37.116600 -1.223300 
10.403040 16.761306 2.840013 -174.426158 8.919312 -178.940267 8.671769 0.258116 -1.522801 -20.943116 -7.936951 -14.476265 5.491406 16.768608 49.628888 -0.438559 9.020394 -21.284976 0.230800 -3.092200 -8.535500 -10.299255 -0.130852 -2.117175 38.403746 9.869702 -12.326913 -5.231984 -16.935576 46.599468 1.865173 -17.624642 -26.100730 -1.713100 8.241100 -23.448800 5.828521 0.388953 18.858164 2.723474 2.885730 3.257192 -7.581410 2.004166 -0.871846 9.237690 10.733687 5.285989 -1.038384 13.792455 -7.463750 -6.539000 5.545000 -4.097800 14.458899 2.845579 -0.547569 -99.526628 14.156012 39.124558 58.422230 -52.209182 -46.034723 1.047124 -5.875122 -30.917259 37.593259 13.890509 16.168500 -7.125000 0.000000 0.000000 12.680300 55.179400 3.207100 -15.992971 -5.894815 1.051556 85.173099 -23.163155 65.137464 -59.069754 54.654169 -42.102786 -0.236506 3.066626 -31.914217 -33.314725 -2.125287 3.648900 7.125000 0.000000 0.000000 -6.846000 -36.306500 -1.471900 
